PathFileType	4	(X/Y/Z)	C:/Users/opensim2020/Desktop/walking_exp_matlab/subject02_walking04_straight_03.trc																																																																																																																												
DataRate	CameraRate	NumFrames	NumMarkers	Units	OrigDataRate	OrigDataStartFrame	OrigNumFrames																																																																																																																								
100	100	4	42	mm	100	2261	222																																																																																																																								
Frame#	Time	LFHD			RFHD			LBHD			RBHD			C7			T10			CLAV			STRN			RBAK			LSHO			LUPA			LELB			LFRM			LWRA			LWRB			LFIN			RSHO			RUPA			RELB			RFRM			RWRA			RWRB			RFIN			LASI			RASI			LPSI			RPSI			LTHI			LKNE			LTIB			LANK			LHEE			LTOE			RTHI			RKNE			RTIB			RANK			RHEE			RTOE			*39			*40			*41		
		X1	Y1	Z1	X2	Y2	Z2	X3	Y3	Z3	X4	Y4	Z4	X5	Y5	Z5	X6	Y6	Z6	X7	Y7	Z7	X8	Y8	Z8	X9	Y9	Z9	X10	Y10	Z10	X11	Y11	Z11	X12	Y12	Z12	X13	Y13	Z13	X14	Y14	Z14	X15	Y15	Z15	X16	Y16	Z16	X17	Y17	Z17	X18	Y18	Z18	X19	Y19	Z19	X20	Y20	Z20	X21	Y21	Z21	X22	Y22	Z22	X23	Y23	Z23	X24	Y24	Z24	X25	Y25	Z25	X26	Y26	Z26	X27	Y27	Z27	X28	Y28	Z28	X29	Y29	Z29	X30	Y30	Z30	X31	Y31	Z31	X32	Y32	Z32	X33	Y33	Z33	X34	Y34	Z34	X35	Y35	Z35	X36	Y36	Z36	X37	Y37	Z37	X38	Y38	Z38	X39	Y39	Z39	X40	Y40	Z40	X41	Y41	Z41	X42	Y42	Z42
																																																																																																																															
56	0.55	-477.55002	1725.93347	-1101.03662	-498.55069	1706.99695	-959.78821	-603.40039	1647.23877	-1128.698	-635.98407	1626.45166	-990.81323	-668.5755	1512.00317	-1060.72363	-730.86945	1237.11926	-1055.6593	-530.88593	1437.83679	-1062.35925	-486.14001	1265.48987	-1054.36597	-736.47687	1338.53357	-1002.47357	-580.89514	1486.46045	-1235.32117	-548.53381	1294.09192	-1328.97559	-505.83673	1159.29309	-1350.94434	-431.32297	1048.03601	-1354.26538	-326.27274	970.01196	-1306.62439	-360.98425	947.50659	-1345.8075	-309.52921	906.35803	-1344.22253	-603.60181	1472.39465	-869.39728	-660.8327	1290.18469	-788.59149	-663.77277	1144.24084	-767.59448	-648.7207	1025.46704	-741.81238	-609.02911	894.64453	-752.82404	-659.57129	895.69708	-725.9718	-627.27509	831.32593	-717.71625	-504.04922	971.45203	-1188.96692	-494.12085	965.63135	-932.57971	-711.62634	1016.03131	-1100.64429	-712.63501	1014.33954	-986.23859	-608.35535	662.81183	-1227.84387	-671.53156	467.63306	-1193.66626	-760.12701	292.98486	-1191.45142	-793.9024	71.81614	-1151.60474	-833.47699	46.37902	-1100.39783	-639.90991	29.87211	-1165.04541	-502.61215	668.98755	-846.93683	-422.28531	477.37735	-878.42664	-397.25949	293.19739	-859.86066	-344.58405	104.52235	-880.84491	-353.98853	39.17232	-936.9823	-183.94176	98.30952	-864.71942	-593.43604	1787.79346	-1027.09607	NaN	NaN	NaN	NaN	NaN	NaN
57	0.56	-468.64496	1724.88464	-1100.12561	-489.89255	1705.77625	-958.83215	-594.51306	1646.18213	-1128.0675	-626.8689	1625.34741	-990.17725	-659.72888	1510.78479	-1059.9679	-721.67432	1235.86548	-1054.73242	-521.70941	1436.68982	-1061.82104	-476.92618	1264.32861	-1054.0083	-727.12323	1337.10962	-1001.7973	-572.00098	1485.3501	-1234.67493	-539.34015	1293.30798	-1328.66736	-496.07996	1158.56006	-1350.96716	-420.56046	1047.85461	-1354.14075	-315.00482	970.98938	-1306.22351	-349.39502	948.00238	-1345.40759	-297.47714	907.53247	-1343.78638	-594.81488	1470.90125	-868.77985	-652.21716	1288.90576	-788.09235	-655.75616	1143.17004	-766.9776	-640.58679	1023.85718	-741.2771	-601.44666	893.38721	-752.20569	-652.24945	894.44928	-725.4563	-620.19196	829.93213	-717.13123	-495.82568	969.96027	-1189.20837	-484.15268	964.14801	-932.87457	-702.75189	1014.92279	-1099.18884	-702.99017	1013.19275	-984.84943	-602.70654	662.01849	-1227.61047	-667.11639	467.3071	-1193.2533	-757.55743	293.65439	-1190.89722	-793.53186	72.75755	-1151.28491	-833.21918	47.60023	-1099.97778	-639.83649	29.82046	-1165.14453	-494.48883	667.36615	-846.75562	-413.30295	476.01233	-879.33783	-383.26767	292.88211	-860.35016	-325.31235	105.24582	-881.31433	-333.6925	39.80793	-936.94397	-163.88832	103.11987	-866.90656	-584.651	1786.61011	-1026.13318	NaN	NaN	NaN	NaN	NaN	NaN
58	0.57	-459.68738	1723.89636	-1099.09692	-480.82324	1704.4845	-957.93451	-585.56915	1645.15247	-1127.29163	-617.75494	1623.94543	-989.29663	-650.64435	1509.52271	-1059.17029	-712.77539	1234.77295	-1053.66565	-512.52942	1435.5575	-1061.09375	-467.59546	1263.17981	-1053.52649	-718.43439	1336.03455	-1001.04694	-563.04016	1484.26038	-1233.96143	-530.17194	1292.47583	-1328.46899	-486.52094	1157.77368	-1350.75146	-410.23816	1047.58081	-1353.849	-304.10791	971.60303	-1305.82056	-338.12631	948.55127	-1344.89856	-285.98141	908.40039	-1343.29016	-585.62915	1469.81165	-867.75903	-643.66187	1287.68115	-787.42017	-647.82391	1142.02271	-766.33881	-632.51428	1022.63635	-740.60626	-593.9043	892.01556	-751.28308	-644.69806	893.25409	-724.77252	-612.92926	828.54346	-716.29041	-487.56815	968.45874	-1189.49841	-474.04968	962.69586	-933.13965	-693.76172	1013.80902	-1097.75696	-693.12347	1012.1402	-983.22668	-596.86768	661.34717	-1227.37561	-662.49982	467.10822	-1192.91785	-754.84778	294.49484	-1190.36121	-793.06372	73.81943	-1151.03406	-832.85052	49.31689	-1099.72095	-639.7915	29.74307	-1165.25159	-485.33743	665.6955	-846.4679	-404.03247	474.59937	-880.05499	-370.04605	292.33548	-861.03546	-307.78745	106.12939	-881.66498	-314.88223	40.38707	-937.06012	-145.82619	106.93495	-868.87372	-575.79822	1785.31287	-1025.08655	NaN	NaN	NaN	NaN	NaN	NaN
59	0.58	-450.66986	1722.84912	-1097.97815	-472.05878	1703.5011	-956.84412	-576.47498	1644.1449	-1126.27881	-609.75763	1622.94507	-988.99243	-641.38733	1508.27832	-1058.20435	-703.10736	1233.3894	-1052.52124	-503.25476	1434.41113	-1060.23889	-458.18631	1262.05847	-1052.97168	-709.40771	1334.59961	-1000.16394	-554.05591	1483.17334	-1233.06812	-521.17517	1291.38416	-1327.61914	-477.13235	1156.87756	-1350.35022	-400.26154	1047.15027	-1353.35303	-293.52301	971.99091	-1305.42871	-327.43671	948.5802	-1344.51074	-274.94055	908.90332	-1342.90808	-576.28778	1468.32178	-866.97339	-634.45422	1286.35291	-786.64624	-639.87079	1140.76282	-765.5141	-624.15137	1021.42108	-739.76086	-585.97815	890.63708	-750.422	-636.81824	892.02222	-723.87384	-605.38348	827.25476	-715.41669	-479.2056	966.93555	-1189.74976	-463.78827	961.27106	-933.30756	-684.68109	1012.75525	-1096.07642	-683.23541	1011.09467	-981.49353	-590.93756	660.70062	-1227.12952	-657.74768	467.0231	-1192.65442	-752.03198	295.47092	-1189.89453	-792.578	75.01875	-1150.79663	-832.54529	50.92013	-1099.3623	-639.73779	29.695	-1165.3429	-475.8688	664.23523	-846.22382	-393.80075	473.27945	-880.62866	-357.46576	291.80576	-861.44989	-292.0239	106.56602	-882.00952	-298.7644	40.65306	-937.51923	-129.9099	109.56345	-870.37622	-566.72382	1784.32544	-1023.97388	NaN	NaN	NaN	NaN	NaN	NaN
